<?xml version="1.0" encoding="utf-8"?>
<!-- Generator: Adobe Illustrator 15.1.0, SVG Export Plug-In . SVG Version: 6.00 Build 0)  -->
<!DOCTYPE svg PUBLIC "-//W3C//DTD SVG 1.1//EN" "http://www.w3.org/Graphics/SVG/1.1/DTD/svg11.dtd">
<svg version="1.1" id="Layer_1" xmlns="http://www.w3.org/2000/svg" xmlns:xlink="http://www.w3.org/1999/xlink" x="0px" y="0px"
	 width="200px" height="200px" viewBox="0 0 200 200" style="enable-background:new 0 0 200 200;" xml:space="preserve">
<style type="text/css">
<![CDATA[
	.st0{fill-rule:evenodd;clip-rule:evenodd;fill:#FFCF00;}
]]>
</style>
<g>
	<path class="st0" d="M86.663,5.486c2.5,0,5.001,0,7.501,0c2.934,0.162,4.286,4.452,6.001,4.501c2.269,0.065,3.303-4.316,6.75-4.501
		c2.501,0,5.001,0,7.502,0c24.79,8.51,36.219,27.076,39.005,55.508c1.995,20.361,0.906,45.102,15.752,52.508
		c-11.722,8.531-27.04,13.465-46.506,14.252c-1.884-12.141,5.529-14.221,9.001-21.004c2.85-5.566,3.783-10.238,4.501-18.002
		c4.531-0.972,7.102-2.803,7.501-6.75c0.886-8.768-6.695-8.147-14.252-9.752c-25.547-5.424-46.932-19.908-51.757-42.756
		c-3.91,10.845-8.354,29.318-14.252,40.506c-2.609,4.949-6.771,8.126-6,12.752c0.59,3.543,3.56,5.502,7.501,6
		c4.256,11.996,14.045,18.461,27.004,21.754c4.046,0.045,3.892-4.109,9.001-3c4.222,1.078,4.992,8.617,1.5,11.25
		c-5.244,1.711-6.858-1.949-10.501-3.75c-10.649-0.604-16.938-5.564-23.253-10.502c2.528,8.225,11.217,10.287,9.001,23.254
		c-19.333-0.17-32.28-6.727-45.756-12.752c2.128-3.668,6.951-6.568,9.001-10.502c8.587-16.479,4.276-42.724,9.751-62.258
		C56.443,21.6,68.027,13.906,86.663,5.486z"/>
	<path class="st0" d="M82.912,194.514c-24.253,0-48.507,0-72.76,0c-1.553-2.852-2.752-13.439-1.5-18.004
		c1.273-4.643,8.503-8.736,12.751-12c13.35-10.258,35.444-23.043,51.757-24.754c-2.106,7.645-5.572,13.93-9.001,20.252
		C70.47,171.451,76.826,182.848,82.912,194.514z"/>
	<path class="st0" d="M190.177,194.514c-24.253,0-48.507,0-72.76,0c6.084-11.67,12.669-22.836,18.753-34.506
		c-2.112-6.945-7.778-14.148-8.252-20.252c26.918,6.086,47.469,18.541,63.76,35.254
		C190.877,181.211,193.402,190.736,190.177,194.514z"/>
</g>
</svg>
