<?xml version="1.0" encoding="utf-8"?>
<!-- Generator: Adobe Illustrator 15.1.0, SVG Export Plug-In . SVG Version: 6.00 Build 0)  -->
<!DOCTYPE svg PUBLIC "-//W3C//DTD SVG 1.1//EN" "http://www.w3.org/Graphics/SVG/1.1/DTD/svg11.dtd">
<svg version="1.1" id="Layer_1" xmlns="http://www.w3.org/2000/svg" xmlns:xlink="http://www.w3.org/1999/xlink" x="0px" y="0px"
	 width="510px" height="440px" viewBox="0 0 510 440" enable-background="new 0 0 510 440" xml:space="preserve">
<path fill-rule="evenodd" clip-rule="evenodd" fill="#FFCF00" d="M110.701,41.931c0.9-0.128,2.888-0.093,4.292-0.071
	c0.422,0.007,1.38,0.019,1.384,0.021c0.062,0.059,0.018,1.659,0.033,2.285c0.124,5.125-0.029,10.633-0.11,15.774
	c-0.097,6.174,0.017,12.045-0.077,18.061c-0.094,6.006,0.017,12.072-0.078,18.061c-0.079,5.004-0.101,10.471,0.028,15.777
	c0.009,0.376-0.047,2.228-0.035,2.215c-0.254,0.27-1.951-0.253-2.351-0.038c-0.626,0.337,0.161,0.697-0.499,0.892
	c-15.954-0.542-31.914-0.588-47.868-1.169c0.194-2.811-0.039-5.629,0.271-8.438c14.85,0.335,29.7,0.6,44.549,0.979
	C110.675,84.833,110.424,63.378,110.701,41.931z"/>
<g>
	<path fill="#FFCF00" d="M484.38,280.465c-3.77-4.65-7.97-8.931-12.53-12.79c-1.4,3.78-2.89,7.5-4.46,11.16
		c-0.89,2.069-1.81,4.12-2.76,6.14c4.26,4.16,8.05,8.81,11.26,13.86c7.76,12.14,12.26,26.55,12.26,41.989
		c0,43.141-35.08,78.221-78.21,78.221c-15.29,0-29.56-4.41-41.62-12.03c-1.86,1-3.74,1.97-5.63,2.92
		c-4.05,2.04-8.28,3.96-12.67,5.771c16.43,13.17,37.26,21.06,59.91,21.06c52.89,0,95.9-43.02,95.9-95.91
		C505.83,317.984,497.79,296.955,484.38,280.465z M159.29,415.034c-5.98-2.55-11.79-5.279-17.43-8.189
		c-12.05,7.72-26.36,12.2-41.76,12.2c-43.13,0-78.21-35.08-78.21-78.21c0-15.5,4.53-29.95,12.34-42.12
		c-3.04-5.92-5.87-12.05-8.46-18.431c-13.5,16.53-21.6,37.61-21.6,60.57c0,52.891,43.02,95.91,95.91,95.91
		c22.78,0,43.71-8,60.17-21.33C159.93,415.305,159.61,415.175,159.29,415.034z"/>
	<path fill="#FFCF00" d="M368.32,407.015c-1.86,1-3.74,1.97-5.63,2.92c-4.05,2.04-8.28,3.96-12.67,5.771
		c-4.7-3.761-9.04-7.96-12.94-12.53c5.77-2.21,11.32-4.57,16.61-7.04c0.23-0.11,0.46-0.21,0.68-0.32
		C358.57,400.055,363.25,403.824,368.32,407.015z"/>
	<path fill="#FFCF00" d="M172.91,403.114c-3.83,4.48-8.07,8.61-12.66,12.32c-0.32-0.13-0.64-0.26-0.96-0.4
		c-5.98-2.55-11.79-5.279-17.43-8.189c4.99-3.2,9.59-6.95,13.72-11.18C161.16,398.364,166.92,400.854,172.91,403.114z"/>
	<path fill="#FFCF00" d="M409.94,244.944c-15.21,0-29.56,3.67-42.36,9.99l-47.27-77.87h52.01c4.88,0,8.85-3.97,8.85-8.859
		c0-4.881-3.97-8.851-8.85-8.851h-66.39c-4.89,0-8.86,3.97-8.86,8.851c0,0.38,0.18,0.699,0.21,1.069c-0.26,1.92,0,3.95,1.1,5.74
		l16.02,26.41H174.6c-0.34,0-0.6,0.22-0.96,0.25l-14.9-24.601h29.88c4.87,0,8.86-3.96,8.86-8.85s-3.99-8.86-8.86-8.86h-75.25
		c-4.86,0-8.85,3.971-8.85,8.86s3.98,8.85,8.85,8.85h24.67l23.23,38.301l-22.49,37.8c-11.84-5.26-24.93-8.23-38.7-8.23
		c-23.54,0-45.13,8.53-61.84,22.66c2.18,5.95,4.6,11.73,7.21,17.34c14.1-13.8,33.4-22.31,54.65-22.31c10.47,0,20.42,2.14,29.58,5.89
		l-41.63,69.99c-1.39,2.34-1.62,5.17-0.64,7.68c0.15,0.41,0.35,0.82,0.57,1.21c0.92,1.63,2.32,2.9,3.98,3.66
		c1.14,0.53,2.41,0.82,3.73,0.82h81.49c-2.43,16.92-10.21,32.14-21.6,43.78c5.58,2.699,11.34,5.189,17.33,7.449
		c12.08-14.13,20.14-31.79,22.39-51.189h53.82c1.61,0,3.17-0.47,4.48-1.271c0.04-0.01,0.09,0,0.13-0.029
		c1.18-0.73,2.07-1.71,2.77-2.801c0.06-0.1,0.19-0.14,0.26-0.239l72.36-121.82l23.36,38.47c-23.29,17.521-38.47,45.311-38.47,76.62
		c0,23.771,8.69,45.54,23.07,62.32c5.77-2.21,11.32-4.57,16.61-7.04c0.23-0.11,0.46-0.21,0.68-0.32
		c-13.98-14.13-22.63-33.56-22.63-54.979c0-24.9,11.91-46.86,30.12-61.21l41.27,68.01c1.68,2.75,4.58,4.27,7.58,4.27
		c1.57,0,3.17-0.42,4.59-1.3c4.17-2.52,5.52-7.97,2.98-12.16l-41.41-68.239c10.08-4.74,21.21-7.591,33.07-7.591
		c21.26,0,40.58,8.53,54.69,22.36c0.95-2.02,1.87-4.07,2.76-6.14c1.57-3.66,3.06-7.38,4.46-11.16
		C455.13,253.495,433.52,244.944,409.94,244.944z M111.25,334.215l33.9-57.07c18.26,12.94,30.48,33.54,32.47,57.07H111.25z
		 M195.67,334.194c-2.07-30.029-17.98-56.3-41.4-72.41l17.41-29.289l61.72,101.699H195.67z M249.07,325.864l-64.81-106.75h128.23
		L249.07,325.864z"/>
	<path fill="#FFCF00" d="M45.45,284.944c-4.24,4.141-8.01,8.761-11.22,13.771c-3.04-5.92-5.87-12.05-8.46-18.431
		c3.75-4.6,7.93-8.85,12.47-12.68C40.42,273.555,42.84,279.335,45.45,284.944z"/>
</g>
<path fill-rule="evenodd" clip-rule="evenodd" fill="#FFCF00" stroke="#FFCF00" stroke-miterlimit="10" d="M215.133,132.594
	c3.027-12.766,3.614-26.076,1.593-39.827c-1.458-9.934-4.526-20.354-9.9-30.929c-5.74-11.295-13.124-21.124-21.062-28.689
	c-10.469-9.979-21.567-16.93-32.942-21.534c-17.313-7.016-35.775-9.605-55.608-6.715C84.616,6.735,69.1,11.684,55.154,21.203
	c-6.899,4.706-12.878,9.604-17.99,14.928c-7.621,7.956-13.047,15.969-17.375,24.42C9.591,80.434,5.769,101.823,9.266,124.762
	c1.974,12.98,6.767,27.834,16.342,41.896c14.084,20.7,30.579,32.053,47.785,39.136c5.756,2.359,11.632,4.201,17.658,5.483
	l1.549-6.693c-0.316-0.052-0.632-0.105-0.946-0.167c-1.377-0.258-2.846-0.741-4.27-1.111c-15.02-3.889-30.138-11.966-43.021-24.597
	c-2.443-2.393-4.718-4.982-7.018-7.773c-7.006-8.489-13.071-19.356-16.604-29.196c-4.695-13.106-6.229-25.409-5.761-37.054
	c0.703-17.359,5.886-34.071,15.803-49.553c3.226-5.022,7.269-10.07,11.988-14.983c4.786-4.979,10.7-9.419,17.163-13.835
	c13.04-8.888,27.447-13.035,39.188-14.67c14.163-1.986,26.976-1.022,39.535,2.408c14.937,4.074,29.901,11.613,43.021,24.597
	c4.944,4.891,9.816,10.628,13.701,16.947c8.569,13.931,12.844,26.592,14.682,39.18c1.775,12.195,1.192,24.028-1.484,35.233
	c-0.079,0.341-0.165,0.67-0.244,1.011L215.133,132.594z"/>
<rect x="192" y="107.89" fill-rule="evenodd" clip-rule="evenodd" fill="#FFCF00" stroke="#FFCF00" stroke-miterlimit="10" width="22" height="6.75"/>
<rect x="184" y="60.89" transform="matrix(0.8439 -0.5364 0.5364 0.8439 -4.0417 114.6368)" fill-rule="evenodd" clip-rule="evenodd" fill="#FFCF00" stroke="#FFCF00" stroke-miterlimit="10" width="22" height="6.75"/>
<rect x="155" y="27.89" transform="matrix(0.551 -0.8345 0.8345 0.551 48.4387 152.5611)" fill-rule="evenodd" clip-rule="evenodd" fill="#FFCF00" stroke="#FFCF00" stroke-miterlimit="10" width="22" height="6.75"/>
<rect x="11.481" y="109.794" transform="matrix(-0.9965 0.0835 -0.0835 -0.9965 54.3321 224.0667)" fill-rule="evenodd" clip-rule="evenodd" fill="#FFCF00" stroke="#FFCF00" stroke-miterlimit="10" width="22" height="6.75"/>
<rect x="24.463" y="156.043" transform="matrix(-0.7962 0.605 -0.605 -0.7962 160.1509 264.8907)" fill-rule="evenodd" clip-rule="evenodd" fill="#FFCF00" stroke="#FFCF00" stroke-miterlimit="10" width="22" height="6.75"/>
<rect x="56.118" y="186.506" transform="matrix(-0.4794 0.8776 -0.8776 -0.4794 265.9306 222.0195)" fill-rule="evenodd" clip-rule="evenodd" fill="#FFCF00" stroke="#FFCF00" stroke-miterlimit="10" width="21.999" height="6.75"/>
<rect x="102.419" y="16.687" transform="matrix(0.0016 -1 1 0.0016 93.1807 133.4506)" fill-rule="evenodd" clip-rule="evenodd" fill="#FFCF00" stroke="#FFCF00" stroke-miterlimit="10" width="22" height="6.75"/>
<rect x="55.409" y="23.613" transform="matrix(-0.5351 -0.8448 0.8448 -0.5351 79.1473 97.5305)" fill-rule="evenodd" clip-rule="evenodd" fill="#FFCF00" stroke="#FFCF00" stroke-miterlimit="10" width="22" height="6.75"/>
<rect x="23.364" y="53.562" transform="matrix(-0.8336 -0.5523 0.5523 -0.8336 31.5643 123.3823)" fill-rule="evenodd" clip-rule="evenodd" fill="#FFCF00" stroke="#FFCF00" stroke-miterlimit="10" width="22" height="6.75"/>
</svg>
