<?xml version="1.0" encoding="utf-8"?>
<!-- Generator: Adobe Illustrator 15.1.0, SVG Export Plug-In . SVG Version: 6.00 Build 0)  -->
<!DOCTYPE svg PUBLIC "-//W3C//DTD SVG 1.1//EN" "http://www.w3.org/Graphics/SVG/1.1/DTD/svg11.dtd">
<svg version="1.1" id="Layer_1" xmlns="http://www.w3.org/2000/svg" xmlns:xlink="http://www.w3.org/1999/xlink" x="0px" y="0px"
	 width="390px" height="310px" viewBox="0 0 390 310" style="enable-background:new 0 0 390 310;" xml:space="preserve">
<style type="text/css">
<![CDATA[
	.st0{fill-rule:evenodd;clip-rule:evenodd;fill:#FFCF00;}
]]>
</style>
<g>
	<path class="st0" d="M253.249,59.531c-1.01,1.99-1.729,4.271-4,5c0.867,8.73,6.046,16.039,10,23c11.224,19.754,23.41,39.816,35,61
		c59.786-8.393,99.111,40.373,93,89c-4.744,37.746-38.244,73.635-88,69c-37.363-3.482-68.903-34.631-71-75
		c-1.997-38.453,19.049-64.898,52-79c-14.751-25.584-32.521-48.146-48-73c-3.958,2.375-3.41,9.256-7,12
		c-11.316,6.35-25.184,10.15-38,15c-1.557,3.92,3.758,5.131,6,7c13.055,10.881,25.707,20.25,41,32c5.529,4.248,13.791,9.188,14,15
		c0.39,10.869-23.499,23.143-31,28c-13.366,8.654-23.996,14.924-36,22c-0.414,7.586,0.98,16.98-1,23c-4.003,4.33-9.476,7.191-19,6
		c-10.677,41.311-39.286,71.537-88,67c-41.463-3.863-73.351-41.059-71-83c2.317-41.355,35.88-80.855,88-76
		c38.143,3.553,63.376,31,70,67c5.37-34.178-13.208-63.133-17-91c-0.838-6.152-1.483-13.736,1-19c3.142-6.662,16.327-10.229,24-14
		c8.896-4.373,17.369-9.525,24-13c17.993-9.434,34.695-14.799,45-29c-1.289-6.789-6.173-13.926-3-22c-9.958-8.6-22.656,4.092-33,1
		c-3.888-7.381,3.271-17.906,9-22c15.229-2.229,19.747,6.252,27,12c5.21-5.977,8.729-10.906,16-13
		c38.332-11.039,48.662,41.551,21,54C269.51,60.664,262.023,61.303,253.249,59.531z M181.249,187.531
		c13.358-8.309,26.292-17.041,40-25c-13.855-13.813-33.297-22.037-49-34C174.823,148.623,177.655,168.457,181.249,187.531z
		 M22.249,199.531c-19.649,44.393,13.771,93.734,61,93c37.44-0.582,67.483-32.338,64-72c-3.059-34.82-33.492-61.645-71-58
		C48.714,165.207,29.744,182.598,22.249,199.531z M248.249,199.531c-19.65,44.393,13.771,93.734,61,93
		c37.44-0.582,67.483-32.338,64-72c-3.059-34.82-33.492-61.645-71-58C274.714,165.207,255.744,182.598,248.249,199.531z"/>
</g>
</svg>
