<?xml version="1.0" encoding="utf-8"?>
<!-- Generator: Adobe Illustrator 15.1.0, SVG Export Plug-In . SVG Version: 6.00 Build 0)  -->
<!DOCTYPE svg PUBLIC "-//W3C//DTD SVG 1.1//EN" "http://www.w3.org/Graphics/SVG/1.1/DTD/svg11.dtd">
<svg version="1.1" id="Layer_1" xmlns="http://www.w3.org/2000/svg" xmlns:xlink="http://www.w3.org/1999/xlink" x="0px" y="0px"
	 width="460px" height="460px" viewBox="0 0 460 460" style="enable-background:new 0 0 460 460;" xml:space="preserve">
<style type="text/css">
<![CDATA[
	.st0{fill:#FFFFFF;}
	.st1{fill:none;stroke:#FFCF00;stroke-width:5;stroke-miterlimit:10;}
]]>
</style>
<path id="tire" class="st0" d="M452.1,236.2c3.2,0.9,3.1-1.6,5-2c-0.1-6.2-1.7-11-1-18c-7.2-1.6-5-13.6,0-15c-2.1-4.6-2.5-10.8-4-16
	c-6.9,1.6-2.5-8.1-7-9c7.4-4.6,0.9-12.5,0-20c-6.8,0.1-5.7-7.6-10-10c1.2-2.1,3.8-2.9,4-6c-3.1-9.9-11.3-14.7-17-22
	c5.3-7.8-3.8-12.7-6-19c-9.1-0.2-11.6-5.5-10-14c-4.4-1.9-6.7-6-9-10c-7.7,1.7-9-3.2-13-5v-8c-6-6.7-17-7.7-24-13v-6
	c-4-2.6-9.1-4.9-13-8c-2.9-0.3-3.1,2.3-6,2c-2.3-2.1-5-4.3-7-4v-5c-6-2.9-11-5.7-17-8c-2.2,7.2-8.3-1.8-12,1c0-2.4-1.7-2.9-1-6
	c-10.4-5.7-19.6-2.3-29-2c0-2.4-1.7-3-1-6.1c-13.6-7.3-25.2,6.9-32-4.1h-18c1.2,7-7.3,2.7-10,5.1c-2.8-0.5-1.9-4.7-5-5
	c-14.1-1.9-22.4,16.5-31,5c-3.5,2.8-9.7,3-15,4c0,2.4-1.7,3-1,6c-10.8,3.5-18.3-1-29,6c1.8,7.8-6,6-8,10c-1.3-1.7-4.4-1.6-6-3
	c-9.5,3.8-13.8,12.9-21,19c-9-3.8-11,6.6-18,8c3.5,8.1-5.3,8.4-5,13c-1.3-1.4-4.7-0.6-6-2c-3.7,3.7-6.2,8.4-11,10.9
	c2.2,6.6-1.2,8.9-4,12.9h-6c-2.9,7-11.4,11.3-7,19.1c-2.7,1.7-3.9,5.5-4,7c-3.1-0.7-3.6,1.1-6,1c-6.8,8.4-5.9,15.9-7,27
	c-3.5-0.8-3.8,1.5-7,1c-0.7,6.3-2.4,11.7-5,16c1.7,1.3,3.9,2.1,4,5c-2,2.2-1.4,7-2,8c-13.6,2.8-5,22.3-5,30c-3-0.1-3,3.6-6,3v18
	c6-1,3.8,9.7,4,12c-1.7-0.1-3.1,0.2-4,1c-0.7,6.7,1,11,1,17c5.3,0.7,5.7,6.4,7,11c-8,3.6-1.3,14.8,0,21c7-1.3,4,7.3,8,9
	c-7.6,5,1.3,13,1,20c7.3-0.7,7.1,6.2,11,9c-3,0.7-3.4,3.9-3,7.9c3.5,2.5,4.9,6.9,7,10.9h6c-0.2,5,3.3,5.4,5,8.1c-1.7,1-1.1,4.3-2,6
	c4.3,8.7,13.9,12.2,21,18c-4,10.1,8.1,11.6,11,18c0.1-1.8,3.4-0.6,4-2c2.8,1.8,4.9,4.4,8,6c0.7,3.1-1.8,2.9-1,6
	c8.2,8.7,17,6.6,26,12v6c8,7.2,19.6,5.4,27,8c-0.5,3.1,1.8,3.5,1,7c10.2,3.7,19.2,3.9,28,3c0.4,3,1.6,5.1,3,7c10.7,3.5,20.6,0,27-1
	c0.5,2.9,3.5,3.1,3,7c14.1,2.5,19.4-4.7,29-4c0.8,1.8,1.3,4,3,5c4.7-1.3,11-1,17-1c-0.3-6.3,8.6-3.4,11-7c1.5,9.4,13.1,1.9,20,2
	c5.4-13.2,20,0.2,30-9v-6c3-1,8-0.7,9-4c5.4,7.6,14.4-2.3,20-4c-1.2-7.2,5.2-6.8,8-10c3.1-0.8,1.9,2.7,5,2c9.5-3.5,12.8-13.2,19-20
	c15.3,2.9,17.2-15.6,22-22c3.1-0.7,2.9,1.7,6,1c12.3-4.9,4-24.4,20-25c1.7-6.3,6.3-9.7,8-16c-5.5-2.1,1.9-9.9,1-11
	c12.8-3.1,11.6-18.4,10-29c4,0.6,4-2.7,8-2c3.1-12.2,1.4-18,0-28c2-1.3,4.8-1.9,7-3C458.7,251.9,451.6,248.6,452.1,236.2z
	 M230,428.8c-109.7,0-198.7-89-198.7-198.7c0-109.7,88.9-198.7,198.7-198.7c109.7,0,198.7,88.9,198.7,198.7
	C428.7,339.8,339.7,428.8,230,428.8z"/>
<circle id="yellowRing" class="st1" cx="229.3" cy="228.8" r="190.9"/>
</svg>
