<?xml version="1.0" encoding="utf-8"?>
<!-- Generator: Adobe Illustrator 15.1.0, SVG Export Plug-In . SVG Version: 6.00 Build 0)  -->
<!DOCTYPE svg PUBLIC "-//W3C//DTD SVG 1.1//EN" "http://www.w3.org/Graphics/SVG/1.1/DTD/svg11.dtd">
<svg version="1.1" id="Layer_1" xmlns="http://www.w3.org/2000/svg" xmlns:xlink="http://www.w3.org/1999/xlink" x="0px" y="0px"
	 width="608.344px" height="130.95px" viewBox="0 0 608.344 130.95" style="enable-background:new 0 0 608.344 130.95;"
	 xml:space="preserve">
<style type="text/css">
<![CDATA[
	.st0{fill:#FFCF00;}
	.st1{fill:#FFFFFF;}
]]>
</style>
<g>
	<g>
		<path class="st0" d="M199.685,13.936c0.763,3.295-1.175,5.826-1.44,8.88c-7.305,1.377-18.501-2.121-25.2,0.721
			c-4.061,1.722-5.187,7.849-6.72,13.439c-3.917,14.284-6.638,25.229-10.56,39.359c-0.771,2.776-1.69,6.412-0.96,8.399
			c1.151,3.134,7.14,2.4,11.76,2.4c5.41,0,9.888,0,14.16,0c-1.079,3.316-0.842,7.724-3.36,9.12c-1.826,1.012-6.792,0.479-9.6,0.479
			c-8.487,0-23.634,1.576-26.4-4.08c-2.339-4.783,0.645-13.508,2.16-19.199c3.354-12.602,6.545-24.037,9.84-36.721
			c3.286-12.646,5.115-22.572,19.92-23.52c4.992-0.32,9.484,0,13.68,0C191.082,13.216,195.262,12.663,199.685,13.936z"/>
		<path class="st0" d="M203.765,130.575c0-1.04,0-2.08,0-3.118c-1.01-0.512-2.924-0.117-4.32-0.24c0.611-1.39,1.443-2.559,1.92-4.08
			c1.023-0.098,2.473,0.231,3.12-0.24c-0.257-1.183,0.796-3.676-1.2-3.12c0.689-1.471,1.675-2.645,2.16-4.318c0.88,0,1.76,0,2.64,0
			c-0.323-1.037,0.738-3.459-0.72-3.36c0.222-1.675,3.208-4.583,3.6-6.96c0.485-2.945-0.24-7.242-0.24-11.28
			c0-19.983,0.24-37.53,0.24-57.36c0-5.262-1.324-19.521,1.2-22.08c2.611-2.646,8.642-0.473,12-1.199
			c0.142,23.341,0.204,48.684-0.72,71.76c3.316-5.657,5.388-12.268,8.4-18.48c7.264-14.98,15.371-29.336,23.28-44.159
			c1.633-3.06,3.21-7.296,5.28-8.4c2.885-1.539,8.658-0.305,12.24-0.72c-16.998,33.141-36.399,69.313-54.48,103.2
			c-2.103,3.938-5.113,12.599-8.88,13.92C207.765,130.868,205.523,130.418,203.765,130.575z"/>
		<path class="st0" d="M300.964,13.216c-0.622,2.816-1.391,5.488-2.16,8.16c2.188-2.865,4.597-7.51,10.562-8.16
			c8.669-0.945,25.06-0.934,27.839,4.32c0.678,1.28,0.744,3.215,0.721,4.799c3.15-4.289,4.547-8.448,11.279-9.119
			c9.244-0.922,26.563-1.148,28.561,5.52c0.328,1.096,0.375,3.247,0.24,5.04c-0.453,5.974-2.879,12.334-4.561,18.48
			c-4.002,14.616-8.18,29.864-12.24,45.121c-0.918,3.447-1.553,7.334-2.879,8.398c-2.484,1.993-8.92,0.458-12.48,0.96
			c4.777-19.568,11.082-41.583,16.561-62.16c0.771-2.895,2.07-7.012,1.199-9.359c-1.232-3.326-7.838-2.4-11.52-2.4
			c-5.24,0-9.371,0-13.92,0c-5.109,20.516-10.885,43.074-16.801,64.562c-0.643,2.329-1.916,7.448-3.119,8.398
			c-2.518,1.987-8.882,0.461-12.481,0.96c4.79-19.56,11.096-41.582,16.561-62.16c0.771-2.904,2.078-6.99,1.201-9.359
			c-1.219-3.282-7.715-2.4-11.281-2.4c-5.116,0-9.03,0-13.44,0c-5.886,19.549-11.872,43.346-17.76,64.562
			c-0.777,2.798-1.534,7.593-3.12,8.64c-2.681,1.771-8.801,0.137-12.24,0.72c5.671-22.354,13.076-49.294,19.44-73.2
			c1.103-4.143,1.67-9.175,5.28-10.08C293.372,12.712,297.977,13.517,300.964,13.216z"/>
		<path class="st0" d="M415.445,13.456c6.34-0.47,13.51-0.24,20.639-0.24c6.697,0,13.816-0.022,16.08,4.08
			c3.068,5.559-0.953,14.759-2.4,20.16c-3.32,12.405-6.834,25.522-10.318,38.64c-2.264,8.521-4.098,15.23-10.32,18.479
			c-5.646,2.947-13.9,2.16-23.76,2.16c-8.881,0-19.502,1.196-22.08-5.04c-1.27-3.069-0.111-7.831,0.721-11.04
			c3.994-15.405,8.844-33.769,13.199-49.68C399.971,20.872,403.027,14.374,415.445,13.456z M408.484,37.936
			c-2.646,9.878-5.711,21.078-8.4,31.2c-1.078,4.061-4.674,13.027-2.639,16.32c1.953,3.161,21.143,2.132,23.76,0.72
			c3.594-1.94,4.52-8.399,6-13.921c2.891-10.795,5.584-20.989,8.398-31.439c0.857-3.186,4.934-12.975,2.881-16.32
			c-1.635-2.66-17.066-1.979-20.641-1.439C411,24.091,410.279,31.234,408.484,37.936z"/>
		<path class="st0" d="M490.084,13.216c-4.998,19.758-11.283,42.102-16.799,63.119c-0.697,2.657-2.145,7.015-0.723,9.121
			c1.686,2.492,8.145,1.68,12,1.68c4.99,0,9.088,0,13.441,0c5.973-19.676,11.748-43.249,17.521-64.801
			c0.672-2.514,2.014-7.521,3.357-8.399c2.693-1.759,8.793-0.146,12.24-0.72c-6.533,24.619-12.559,48.058-19.439,73.2
			c-0.854,3.119-1.881,8.458-3.6,9.6c-2.363,1.568-8.807,0.72-12.48,0.72c-4.904,0-9.924,0-13.199,0
			c-10.039,0-24.09,1.943-24.721-7.92c-0.398-6.231,2.656-13.193,4.32-19.439c4.02-15.1,8.102-31.141,12.48-47.041
			c1.256-4.564,1.777-8.106,5.277-8.879C482.803,12.786,486.246,13.458,490.084,13.216z"/>
		<path class="st0" d="M565.684,13.216c-0.604,2.994-1.625,5.572-2.158,8.64c2.092-1.834,3.242-5.306,6.721-7.2
			c3.918-2.134,11.75-2.003,16.559-0.479c0.445,3.024-1.09,5.876-1.68,8.64c-7.279,0-14.561,0-21.84,0
			c-5.703,19.844-11.516,43.032-17.279,64.562c-0.627,2.335-1.922,7.438-3.121,8.398c-2.498,2.005-8.895,0.447-12.479,0.96
			c5.59-21.512,12.748-48.8,18.961-72c1.15-4.3,1.949-10.851,6.479-11.52C559.018,12.747,562.879,13.571,565.684,13.216z"/>
	</g>
	<path class="st1" d="M35.044,74.415c-0.785-2.828,2.237-4.543,3.84-6c5.159-4.69,10.845-9.652,16.08-14.399
		c-3.268-9.692-7.035-18.886-10.32-28.56c-5.75-0.57-14.062,1.42-16.8-2.16c1.824-2.051,5.876-1.2,9.36-1.2c3.524,0,7.232,0,10.32,0
		c3.217,10.144,7.066,19.653,10.56,29.521c11.897-10.184,23.481-20.68,35.04-31.201c-3.508-1.451-9.941,0.021-12.96-1.92
		c0.304-2.148,2.908-1.563,4.56-1.68c1.827-0.128,4.04-0.217,5.76-0.48c3.731-0.57,7.001-2.293,9.84-2.399
		c2.882-0.106,5.5,1.804,5.52,4.08c0.017,1.916-2.201,4.324-4.32,4.56c-1.187,0.133-2.735-1.074-3.84-0.959
		c-2.104,0.217-5.574,4.588-7.92,6.719c-15.406,13.992-31.065,27.353-46.32,41.041C41.102,71.478,38.731,75.527,35.044,74.415z"/>
	<path class="st1" d="M35.044,48.255c1.061,0.451-0.516,2.125-0.24,3.361c-11.202,1.733-18.89,7.885-19.2,19.92
		c-0.322,12.523,8.604,22.225,20.4,22.319c9.804,0.079,16.27-5.434,20.16-12.96c0.96,0,1.92,0,2.88,0
		c-3.184,9.478-11.837,17.037-25.2,16.08c-13.063-0.936-22.252-12.923-21.6-25.92C12.866,58.667,21.418,49.509,35.044,48.255z"/>
	<path class="st1" d="M88.084,48.735c7.816-0.391,14.228,2.58,17.76,6c3.646,3.531,7.608,10.736,7.68,18
		c0.135,13.687-9.323,23.517-21.84,24.48c-18.068,1.392-32.683-16.817-24-35.28C70.706,55.513,77.244,49.278,88.084,48.735z
		 M86.884,52.096c-13.605,0.472-22.931,17.022-16.08,30.96c2.887,5.873,9.278,10.835,18,11.04
		c11.964,0.281,20.452-7.812,21.36-18.72c1.137-13.656-8.779-24.654-22.8-23.28C87.207,52.11,87.043,52.09,86.884,52.096z"/>
	<path class="st1" d="M207.364,112.096c1.458-0.099,0.397,2.323,0.72,3.36c-0.88,0-1.76,0-2.64,0
		c-66.448-0.316-136.665,0.634-201.36-0.48c-0.138-2.872,1.355-2.766,3.36-2.88c2.028-0.116,4.862,0,6.48,0
		C77.74,112.096,144.776,112.096,207.364,112.096z"/>
	<path class="st1" d="M244.324,130.815c-3.13,0.073-1.92-4.975-1.92-8.16c0-3.285,0.81-7.94-1.68-8.16
		c-4.546-0.397-0.666,13.852-2.64,16.32c-0.48,0-0.96,0-1.44,0c-2.044-2.1,1.788-15.926-2.16-16.32
		c-4.492-0.446-0.7,13.859-2.64,16.32c-0.48,0-0.96,0-1.44,0c-0.293-5.805-2.712-18.426,3.6-18.72c1.555-0.072,2.022,0.641,3.36,1.2
		c1.303-0.458,1.806-1.186,3.12-1.2C247.229,112.015,244.542,125.021,244.324,130.815z"/>
	<path class="st1" d="M250.324,112.336c-0.157,6.082,0.317,12.796-0.24,18.479c-3.387,0.396-2.16-4.833-2.16-7.92
		c0-3.577,0-7.407,0-10.08c0.134-0.346,0.375-0.586,0.72-0.72C249.423,111.956,249.76,112.259,250.324,112.336z"/>
	<path class="st1" d="M255.844,112.336c0,5.278,0,10.56,0,15.84c0.816,0.624,3.024-0.146,3.84,0.479c0,0.642,0,1.28,0,1.92
		c-1.527,0.359-4.818,0.534-6-0.238c-0.55-5.37-0.087-11.753-0.24-17.521c0.134-0.346,0.375-0.586,0.72-0.72
		C254.943,111.956,255.28,112.259,255.844,112.336z"/>
	<path class="st1" d="M268.804,112.575c0,0.562,0,1.12,0,1.682c-0.789,0.491-2.43,0.129-3.6,0.238
		c-0.53,1.472-0.102,3.898-0.24,5.762c1.2,0,2.4,0,3.6,0c0.311,0.695,0.311,1.703,0,2.398c-1.12,0-2.24,0-3.36,0
		c-0.558,1.442-0.082,3.918-0.24,5.762c1.2,0,2.4,0,3.6,0c0.145,0.573,0.345,1.095,0.24,1.92c-1.147,0.863-4.475,0.517-6,0.238
		c-0.399-5.524-0.399-12.714,0-18.238C264.382,112.112,267.621,111.674,268.804,112.575z"/>
	<path class="st1" d="M278.884,118.336c-0.72,0-1.44,0-2.16,0c1.388-3.266-3.892-5.228-4.08-1.92c-0.12,2.104,5.717,6.477,6.24,8.88
		c1.47,6.749-10.53,7.482-8.4-0.722c0.64,0,1.28,0,1.92,0c-1.011,2.744,3.379,5.408,4.08,2.4c0.673-2.886-5.808-6.636-6.24-9.84
		C269.468,111.389,280.262,109.288,278.884,118.336z"/>
	<path class="st1" d="M290.884,112.336c4.887-0.708,4.8,3.661,4.8,9.12c0,4.973,0.328,9.459-4.319,9.358
		c-1.367-0.029-3.193-1.057-3.84-2.398c-1.154-2.396-1.184-10.749-0.24-13.44C287.78,113.562,289.24,112.574,290.884,112.336z
		 M289.445,122.176c0,3.27-0.173,6.686,2.399,6.24c2.903-0.505,1.192-10.688,0.96-13.44
		C288.838,113.038,289.445,118.168,289.445,122.176z"/>
	<path class="st1" d="M300.724,130.815c-3.196,0.179-1.92-5.782-1.92-7.438c0-2.696-0.552-6.714,0.48-8.882
		c1.569-3.3,6.558-2.86,7.92,0c0.893,1.875,0.479,5.863,0.479,8.642c0,2.839,0.671,7.734-1.438,7.68
		c-3.434-0.091,1.29-16.09-2.88-16.32C298.927,114.251,302.633,127.998,300.724,130.815z"/>
	<path class="st1" d="M318.244,112.336c0.922,4.918-1.041,12.722,1.92,15.6c2.709-1.244,2.16-6.025,2.16-10.8
		c0-2.449-0.768-5.947,2.398-4.8c0.348,5.414-1.092,12.612,1.682,15.6c2.707-1.244,2.16-6.025,2.158-10.8
		c0-2.449-0.766-5.947,2.4-4.8c-0.045,7.152,0.936,15.334-3.119,18.479c-3.129,0.729-3.135-1.664-4.318-2.88
		c-0.785,0.816-1.068,2.133-1.922,2.88c-6.584,1.183-5.857-12.613-5.279-18.24C316.637,111.913,317.621,112.096,318.244,112.336z"/>
	<path class="st1" d="M336.484,112.336c0,2.56,0,5.12,0,7.68c0.805,0.555,2.637,0.084,3.84,0.24c0.371-2.589-0.809-6.729,0.721-8.16
		c0.348,0.131,1.24-0.28,1.199,0.24c0.943,4.965,0.484,12.883,0.24,18.479c-0.875,0.074-1.563-0.038-2.16-0.24
		c0-2.56,0-5.118,0-7.68c-0.807-0.555-2.637-0.084-3.84-0.24c-0.148,2.652,0.305,5.904-0.24,8.16c-3.387,0.396-2.16-4.833-2.16-7.92
		c0-3.577,0-7.407,0-10.08c0.135-0.346,0.375-0.586,0.721-0.72C335.584,111.956,335.922,112.259,336.484,112.336z"/>
	<path class="st1" d="M352.084,112.336c0,0.72,0,1.438,0,2.158c-1.199,0-2.4,0-3.6,0c-0.529,1.472-0.104,3.898-0.24,5.762
		c1.244,0.114,2.979-0.26,3.84,0.238c0,0.642,0,1.28,0,1.922c-0.789,0.49-2.43,0.129-3.6,0.238c-0.559,1.363-0.082,3.758-0.24,5.521
		c0.814,0.624,3.023-0.146,3.84,0.479c0,0.642,0,1.28,0,1.92c-1.527,0.359-4.818,0.534-6-0.238c-0.398-5.366-0.398-12.396,0-17.762
		C347.295,111.773,350.518,112.017,352.084,112.336z"/>
	<path class="st1" d="M361.445,112.336c0,0.72,0,1.438,0,2.158c-1.17,0.11-2.813-0.251-3.602,0.24
		c-0.557,1.363-0.082,3.758-0.24,5.521c1.244,0.114,2.979-0.26,3.842,0.238c0,0.642,0,1.28,0,1.922
		c-0.789,0.49-2.432,0.129-3.602,0.238c-0.557,1.363-0.082,3.758-0.24,5.521c0.861,0.498,2.596,0.124,3.842,0.24
		c0,0.72,0,1.438,0,2.158c-1.441,0.426-4.309,0.349-5.762,0c-0.936-4.998-0.494-12.606-0.238-18
		C356.654,111.773,359.877,112.017,361.445,112.336z"/>
	<path class="st1" d="M366.965,112.336c0,5.278,0,10.56,0,15.84c0.814,0.624,3.023-0.146,3.84,0.479c0,0.642,0,1.28,0,1.92
		c-1.525,0.359-4.816,0.534-6-0.238c-0.551-5.37-0.088-11.753-0.24-17.521c0.135-0.346,0.375-0.586,0.721-0.72
		C366.064,111.956,366.4,112.259,366.965,112.336z"/>
	<path class="st1" d="M380.645,118.336c-0.721,0-1.439,0-2.158,0c1.387-3.266-3.893-5.228-4.08-1.92
		c-0.121,2.104,5.717,6.477,6.238,8.88c1.471,6.749-10.529,7.482-8.398-0.722c0.639,0,1.279,0,1.92,0
		c-1.012,2.744,3.379,5.408,4.08,2.4c0.672-2.886-5.809-6.636-6.24-9.84C371.229,111.389,382.023,109.288,380.645,118.336z"/>
	<path class="st1" d="M393.365,112.096c55.516,0.317,112.43-0.638,167.52,0.479c0.494,4.149-4.418,2.882-7.92,2.882
		c-52.926,0-107.828,0.197-160.08-0.24c0-0.8,0-1.602,0-2.4C392.873,112.405,393.063,112.194,393.365,112.096z"/>
	<path class="st1" d="M203.285,119.775c1.996-0.556,0.942,1.938,1.2,3.12c-0.647,0.473-2.097,0.143-3.12,0.24
		c-49.383-0.439-100.374-0.24-150-0.24c-15.556,0-31.685,0.563-46.8,0c-0.696-0.025-2.412,0.608-2.64-0.72
		c0.053-2.691,2.027-2.354,3.84-2.4c1.923-0.05,4.513,0,6.24,0C75.03,119.775,141.292,119.775,203.285,119.775z"/>
	<path class="st1" d="M393.125,119.775c54.957,0.319,111.307-0.638,165.84,0.48c0.221,4.026-4.23,2.88-7.92,2.88
		c-52.283,0-106.549,0.199-158.16-0.24c0-0.8,0-1.6,0-2.4C392.863,120.155,392.846,119.815,393.125,119.775z"/>
	<path class="st1" d="M199.444,127.216c1.396,0.123,3.31-0.271,4.32,0.24c0,1.038,0,2.078,0,3.118
		c-67.848-0.317-136.837,0.64-203.76-0.479c-0.201-4.487,6.267-2.88,9.6-2.88C72.223,127.216,138.058,127.216,199.444,127.216z"/>
	<path class="st1" d="M393.125,127.456c54.236,0.317,109.869-0.64,163.68,0.479c0.484,3.911-4.656,2.64-7.92,2.64
		c-51.549,0-105.115,0.199-156-0.238c0-0.722,0-1.44,0-2.16C392.863,127.835,392.846,127.497,393.125,127.456z"/>
</g>
<path class="st1" d="M592.504,0.556c0,0.24,0,0.48,0,0.72c-0.176,1.423-2.781,0.419-4.08,0.72c-0.705,3.294,0.229,8.226-0.479,11.52
	c-0.721,0-1.439,0-2.16,0c0-3.76,0-7.52,0-11.28c-1.01-0.51-2.924-0.116-4.32-0.24c0-0.64,0-1.28,0-1.92
	C585.002,0.377,589.76-0.541,592.504,0.556z"/>
<path class="st1" d="M597.545,0.076c1.443,3.195,2.256,7.024,3.84,10.081c1.338-3.223,2.375-6.746,3.602-10.081
	c1.119,0,2.238,0,3.357,0c0,4.48,0,8.959,0,13.44c-0.719,0-1.438,0-2.16,0c-0.549-2.811-0.088-6.632-0.238-9.84
	c-1.398,3.081-2.496,6.464-3.602,9.84c-0.559,0-1.119,0-1.68,0c-1.789-2.771-2.566-6.553-3.84-9.84
	c-0.561,2.801-0.08,6.639-0.24,9.84c-0.719,0-1.439,0-2.16,0c-0.553-3.926-0.084-8.875-0.24-13.2
	C594.902-0.167,596.449,0.18,597.545,0.076z"/>
<path class="st1" d="M105.064,52.156c-0.266-0.693-0.501-2.289,0.24-2.641c7.561-0.854,21.271-0.48,31.44-0.48
	c3.15,0,8.4-0.832,8.4,1.68c0,2.479-6.15,1.867-8.88,1.921C126.119,52.836,114.115,52.869,105.064,52.156z"/>
</svg>
