<?xml version="1.0" encoding="utf-8"?>
<!-- Generator: Adobe Illustrator 15.1.0, SVG Export Plug-In . SVG Version: 6.00 Build 0)  -->
<!DOCTYPE svg PUBLIC "-//W3C//DTD SVG 1.1//EN" "http://www.w3.org/Graphics/SVG/1.1/DTD/svg11.dtd">
<svg version="1.1" id="Layer_1" xmlns="http://www.w3.org/2000/svg" xmlns:xlink="http://www.w3.org/1999/xlink" x="0px" y="0px"
	 width="130px" height="130px" viewBox="0 0 130 130" enable-background="new 0 0 130 130" xml:space="preserve">
<g>
	<path fill-rule="evenodd" clip-rule="evenodd" fill="#FFCF00" d="M51.257,3.284c23.805-5.52,21.327,32.624-2,26
		C39.096,26.398,37.387,6.5,51.257,3.284z"/>
	<path fill-rule="evenodd" clip-rule="evenodd" fill="#FFCF00" d="M103.257,3.284c7.258-1.899,14.782,1.087,17,7
		c2.579,6.877-1.869,17.259-8,19C94.894,34.215,84.548,8.179,103.257,3.284z"/>
	<path fill-rule="evenodd" clip-rule="evenodd" fill="#FFCF00" d="M37.257,15.284c3.768,9.756-3.942,14.114-9,21
		c-3.611,4.917-6.262,11.703-11,9c-2.759-6.905,3.785-12.729,7-17C28.023,23.282,31.789,17.503,37.257,15.284z"/>
	<path fill-rule="evenodd" clip-rule="evenodd" fill="#FFCF00" d="M88.257,15.284c2.064,1.936,1.908,6.092,3,9
		c-5.047,3.62-8.366,8.967-12,14C74.797,27.146,82.634,19.669,88.257,15.284z"/>
	<path fill-rule="evenodd" clip-rule="evenodd" fill="#FFCF00" d="M71.257,19.284c1.163-0.163,1.779,0.221,2,1
		c3.506,9.902,1.289,23.673-3,34c-2.652,6.386-5.58,15.298-13,12c-1.325-6.867,4.925-10.135,7-16c2.361-6.673,1.174-14.1,3-21
		C68.157,25.885,71.606,23.034,71.257,19.284z"/>
	<path fill-rule="evenodd" clip-rule="evenodd" fill="#FFCF00" d="M124.257,19.284c6.077,8.753,2.333,26.363-2,36
		c-2.475,5.504-4.71,12.985-11,12c-4.285-4.035,0.766-9.161,3-14c2.163-4.685,4.413-9.424,5-15c0.278-2.65-0.576-5.6,0-8
		C120.305,25.916,123.905,23.04,124.257,19.284z"/>
	<path fill-rule="evenodd" clip-rule="evenodd" fill="#FFCF00" d="M48.257,74.284c-2.005-1.989,0.315-4.761,1-7
		c-2.016-3.984-7.158-4.842-11-7c-4.017,3.719-4.131,7.44-5,15c-1.133,9.864-6.524,20.893-11,30c-2.012,4.094-4.311,9.138-7,13
		c-2.735,3.929-6.246,9.049-11,9c-2.477-3.59-1.707-8.244-1-12c1.244-6.615,6.391-15.383,10-23c2.636-5.563,4.517-10.765,8-16
		c1.045-1.571,2.361-4.273,3-5c3.088-3.515,8.703-5.767,9-13c-2.283-2.717-7.457-2.543-10-5c-5.215-0.549-2.544,6.79-8,6
		c-2.441-1.746,2.868-10.647,6-10c8.601,1.778,31.068,11.361,32,16C53.97,68.828,52.547,73.495,48.257,74.284z M10.257,109.284
		c-1.411,3.967-4.007,8.67-3,13c9.641-13.359,16.842-29.158,22-47c-0.224-0.776-0.027-1.973-1-2
		C20.968,83.583,14.676,96.861,10.257,109.284z"/>
	<path fill-rule="evenodd" clip-rule="evenodd" fill="#FFCF00" d="M105.257,63.284c0.065,4.732,0.159,9.493-3,11
		c-4.646-0.203-0.382-5.513-1-8c-2.504-3.163-6.835-4.499-11-6c-1.414,2.603-4.243,5.931-5,9c-0.358,1.453,0.668,6.912,0,10
		c-0.881,4.075-3.158,9.404-5,14c-3.446,8.599-7.74,17.156-13,25c-2.354,3.512-5.353,8.965-10,9c-4.547-6.059-0.616-13.083,1-18
		c4.237-12.895,10.256-27.957,19-38c2.919-3.353,6.972-6.36,9-12c-1.416-4.917-10.704-1.963-11-8
		C86.205,50.421,96.099,59.046,105.257,63.284z M68.257,96.284c-3.65,7.956-9.193,16.551-8,26c8.082-14.917,17.619-28.381,21-48
		c1.052-0.055,0.787-1.282-1-1C75.714,80.154,72.013,88.097,68.257,96.284z"/>
	<path fill-rule="evenodd" clip-rule="evenodd" fill="#FFCF00" d="M46.257,76.284c3.35,5.383-1.501,14.28-4,21
		c-2.39,6.428-4.321,17.096-13,16c-2.509-5.421,2.816-10.534,5-16c2.296-5.749,3.683-15.659,8-21
		C43.591,76.284,44.924,76.284,46.257,76.284z"/>
	<path fill-rule="evenodd" clip-rule="evenodd" fill="#FFCF00" d="M100.257,78.284c-1.007,6.84-3.507,14.428-6,21
		c-2.006,5.287-4.027,14.54-12,14c-4.547-3.916,1.23-7.81,3-12c3.403-8.06,4.36-17.589,9-25
		C97.715,75.492,98.479,77.396,100.257,78.284z"/>
</g>
</svg>
