<svg xmlns="http://www.w3.org/2000/svg" id="Layer_1" viewBox="0 0 405 405">
  <style>
<![CDATA[
	.phone-icon{fill-rule:evenodd;clip-rule:evenodd;fill:#FFCE00;}
]]>
  </style>
  <path d="M80.4 2c13.4-1 16.6 4.8 24 18 10 18.2 18.5 34 29 51 5 8 14 18.6 14 26 0 13.4-18 25.4-25 31-9 7-26 15.3-27 28-.7 8.4 7.4 19.2 12 27 29.2 50 63 83.7 114 114 9 5.3 19.4 12.2 26 12 11-.3 23.5-19 29-26 7-8.8 19-25.2 29-26 7.8-.6 18.4 8.2 26 13 16.3 10.5 32 18 50 28 7 4 20 10 22 17 3.6 14.2-6.4 38.2-10 45-10.5 19.5-33.4 31.2-53 38-23 8-52.7 6-77-2-93.5-31-157-84.4-208-156-12.6-17.6-23.2-36.6-32-59-11-28-25.6-56-22-94 2.6-28.3 21.2-64.8 42-76C53 6 65 3 80.4 2z" class="phone-icon"/>
</svg>
