<?xml version="1.0" encoding="utf-8"?>
<!-- Generator: Adobe Illustrator 15.1.0, SVG Export Plug-In . SVG Version: 6.00 Build 0)  -->
<!DOCTYPE svg PUBLIC "-//W3C//DTD SVG 1.1//EN" "http://www.w3.org/Graphics/SVG/1.1/DTD/svg11.dtd">
<svg version="1.1" id="arrival-icon" xmlns="http://www.w3.org/2000/svg" xmlns:xlink="http://www.w3.org/1999/xlink" x="0px"
	 y="0px" width="100px" height="85px" viewBox="-399.5 308 100 85" enable-background="new -399.5 308 100 85" xml:space="preserve"
	>
<g>
	<path fill="#FFCF00" d="M-306.077,313.18l-0.121-2.229l1.252-0.06c2.697-0.146,4.396-0.226,5.396-0.254v-2.008
		c0,0-87.968,3.084-87.968,18.785c0,15.699,33.588,33.737,33.433,42.737c-0.216,12.247-34.151,18.22-45.365,22.22h44.515
		c1.339-1,2.815-1.641,4.516-2.619l0.967-0.463l1.112,1.98l-0.968,0.396c-0.514,0.295-1.002,0.706-1.476,0.706h31.332
		c0,0,15.59-8.984,15.232-22.398c-0.448-16.711-55.19-33.709-54.953-42.424c0.252-9.172,59.623-12.193,59.623-12.193v-2.484
		c-1,0.032-2.707,0.109-5.275,0.248L-306.077,313.18z M-370.562,335.607l-0.646-0.91c-2.029-2.86-3.017-5.473-3.017-7.985
		c0-1.405,0.7-2.729,2.082-3.934l0.841-0.734l1.467,1.683l-0.841,0.732c-0.874,0.762-1.315,1.52-1.315,2.252
		c0,2.006,0.876,4.258,2.604,6.694l0.646,0.909L-370.562,335.607z M-332.153,381.395c-2.81,2.6-6.475,4.67-9.985,6.57l-0.981,0.53
		l-1.062-1.964l0.981-0.53c3.387-1.831,6.912-3.821,9.531-6.245l0.818-0.758l1.516,1.639L-332.153,381.395z M-332.911,362.287
		l0.846,0.729c3.519,3.043,5.088,5.313,5.088,7.36c-0.022,1.326-0.192,2.546-0.504,3.688l-0.291,1.078l-2.154-0.586l0.293-1.078
		c0.262-0.965,0.404-2,0.423-3.076c0.001-0.911-0.748-2.613-4.313-5.698l-0.844-0.729L-332.911,362.287z M-349.233,350.633
		l3.842,2.644c2.381,1.631,4.629,3.173,6.736,4.675l0.907,0.648l-1.297,1.816l-0.907-0.646c-2.091-1.491-4.33-3.026-6.701-4.652
		l-3.847-2.646L-349.233,350.633z M-354.992,346.546l0.9,0.66l-1.317,1.801l-0.901-0.657c-3.781-2.766-6.799-5.194-9.227-7.427
		l-0.822-0.755l1.511-1.645l0.821,0.756C-361.661,341.454-358.707,343.831-354.992,346.546z M-352.536,318.236
		c-4.468,0.867-8.243,1.812-11.224,2.809l-1.059,0.354l-0.708-2.115l1.059-0.354c3.072-1.028,6.943-1.998,11.506-2.885l1.096-0.212
		l0.425,2.19L-352.536,318.236z M-332.913,315.37c-4.145,0.461-8.041,0.964-11.582,1.495l-1.104,0.166l-0.332-2.207l1.104-0.166
		c3.567-0.536,7.493-1.042,11.668-1.506l1.108-0.124l0.246,2.219L-332.913,315.37z M-313.108,313.619
		c-4,0.275-7.924,0.588-11.664,0.93l-1.111,0.103l-0.202-2.224l1.111-0.102c3.756-0.344,7.696-0.657,11.713-0.934l1.112-0.078
		l0.154,2.228L-313.108,313.619z"/>
</g>
</svg>
