<svg id="Layer_1" xmlns="http://www.w3.org/2000/svg" viewBox="0 0 104 32">
  <style>
<![CDATA[
	.st0{fill:#F5F5F5;}
]]>
  </style>
  <g id="instagram_1_">
    <path id="instagram" class="st0" d="M99.6 0H75.2c-2.1 0-3.8 1.7-3.8 3.8v24.4c0 2.1 1.7 3.8 3.8 3.8h24.4c2.1 0 3.8-1.7 3.8-3.8V3.8c0-2.1-1.7-3.8-3.8-3.8m-4.2 4h3c.6 0 1 .4 1 1v3c0 .6-.4 1-1 1h-3c-.6 0-1-.4-1-1V5c0-.6.4-1 1-1m-8 5.9c3.4 0 6.2 2.7 6.2 6.1 0 3.4-2.8 6.1-6.2 6.1s-6.2-2.8-6.2-6.1c.1-3.4 2.8-6.1 6.2-6.1m12 19.1h-24c-.6 0-1-.4-1-1V13h4c-.5.8-.7 2.1-.7 3 0 5.4 4.4 9.7 9.7 9.7 5.4 0 9.7-4.4 9.7-9.7 0-.9-.1-2.3-.8-3h4v15c.1.6-.4 1-.9 1"/>
  </g>
  <g id="facebook_1_">
    <path id="facebook_2_" class="st0" d="M31.3 0H2C1.2 0 .6.6.6 1.3v29.3c0 .8.6 1.4 1.4 1.4h15.7V20h-4v-5h4v-4c0-4.1 2.6-6.2 6.3-6.2 1.8 0 3.3.1 3.7.2v4.3h-2.6c-2 0-2.5 1-2.5 2.4V15h5l-1 5h-4l.1 12h8.6c.7 0 1.3-.6 1.3-1.3V1.3C32.6.6 32 0 31.3 0"/>
  </g>
  <g id="twitter_1_">
    <path id="twitter" class="st0" d="M67.5 5.8c-1.2.5-2.4.9-3.8 1 1.4-.8 2.4-2.1 2.9-3.6-1.2.8-2.6 1.3-4.1 1.6-1.2-1.3-2.9-2.1-4.8-2.1-3.6 0-6.6 2.9-6.6 6.6 0 .5.1 1 .2 1.5-5.5-.3-10.3-2.9-13.5-6.9-.6 1-.9 2.1-.9 3.3 0 2.3 1.2 4.3 2.9 5.5-1.1 0-2.1-.3-3-.8v.1c0 3.2 2.3 5.8 5.3 6.4-.6.2-1.1.2-1.7.2-.4 0-.8 0-1.2-.1.8 2.6 3.3 4.5 6.1 4.6-2.2 1.8-5.1 2.8-8.2 2.8-.5 0-1.1 0-1.6-.1 2.9 1.9 6.4 2.9 10.1 2.9 12.1 0 18.7-10 18.7-18.7v-.9c1.2-.8 2.4-2 3.2-3.3"/>
  </g>
</svg>
